<svg xmlns="http://www.w3.org/2000/svg" width="24" height="24" viewBox="0 0 24 24"><g fill="#000000" class="nc-icon-wrapper"><path d="M13.956 20.001a2 2 0 1 1-4 0 2 2 0 0 1 4 0m.105-5.697c.15-.43.453-.813.873-1.09 1.405-.921 2.53-2.271 2.883-3.914a6 6 0 0 0-2.548-6.302c-1.718-1.14-3.836-1.312-5.813-.478-1.786.754-3.04 2.39-3.397 4.338-.11.599.385 1.142.994 1.141l2.032-.004c.428 0 .843-.252.97-.66.16-.519.507-.94.958-1.132.983-.414 1.703-.098 2.046.13.562.371.897.995.897 1.668 0 .712-.366 1.356-.979 1.72-1.541.92-2.577 2.381-2.907 4.044-.12.603.376 1.159.991 1.159h2.05c.411 0 .815-.231.95-.62Z"></path></g></svg>