<svg xmlns="http://www.w3.org/2000/svg" width="24" height="24" viewBox="0 0 24 24"><g fill="#000000" class="nc-icon-wrapper"><path d="M12 1.25C7.652 1.25 3.25 2.538 3.25 5v15c0 2.673 7.855 2.75 8.75 2.75s8.75-.077 8.75-2.75V5c0-2.462-4.402-3.75-8.75-3.75M4.75 9.67c2.323 1.034 6.602 1.08 7.25 1.08s4.927-.046 7.25-1.08v4.269c-.356.484-3.004 1.311-7.25 1.311-4.32 0-6.989-.857-7.25-1.25zM12 21.25c-4.32 0-6.989-.857-7.25-1.25v-4.32c2.326 1.03 6.603 1.07 7.25 1.07s4.93-.04 7.255-1.072l.013 4.235c-.28.48-2.947 1.337-7.268 1.337m7.267-13.336c-.28.48-2.948 1.336-7.267 1.336S5.011 8.393 4.75 8V5c0-.896 2.892-2.25 7.25-2.25S19.25 4.104 19.25 5l.018 2.91zM8 12.5a1 1 0 1 1-2 0 1 1 0 0 1 2 0m0-6a1 1 0 1 1-2 0 1 1 0 0 1 2 0m0 12a1 1 0 1 1-2 0 1 1 0 0 1 2 0"></path></g></svg>