<svg xmlns="http://www.w3.org/2000/svg" width="24" height="24" viewBox="0 0 24 24"><g fill="#000000" class="nc-icon-wrapper"><path d="M6 18.75c1.517 0 2.75-1.233 2.75-2.75S7.517 13.25 6 13.25 3.25 14.483 3.25 16 4.483 18.75 6 18.75m0-4a1.251 1.251 0 0 1 0 2.5 1.251 1.251 0 0 1 0-2.5M10.75 22a.75.75 0 0 1-1.5 0c0-.69-.56-1.25-1.25-1.25H4c-.69 0-1.25.56-1.25 1.25a.75.75 0 0 1-1.5 0A2.753 2.753 0 0 1 4 19.25h4A2.753 2.753 0 0 1 10.75 22M6 6.75c1.517 0 2.75-1.233 2.75-2.75S7.517 1.25 6 1.25 3.25 2.483 3.25 4 4.483 6.75 6 6.75m0-4a1.251 1.251 0 0 1 0 2.5 1.251 1.251 0 0 1 0-2.5M10.75 10a.75.75 0 0 1-1.5 0c0-.69-.56-1.25-1.25-1.25H4c-.69 0-1.25.56-1.25 1.25a.75.75 0 0 1-1.5 0A2.753 2.753 0 0 1 4 7.25h4A2.753 2.753 0 0 1 10.75 10m2.5-2.5a.75.75 0 0 1 .75-.75h4a.75.75 0 0 1 0 1.5h-4a.75.75 0 0 1-.75-.75m9.5-3a.75.75 0 0 1-.75.75h-8a.75.75 0 0 1 0-1.5h8a.75.75 0 0 1 .75.75m-4 15a.75.75 0 0 1-.75.75h-4a.75.75 0 0 1 0-1.5h4a.75.75 0 0 1 .75.75m4-3a.75.75 0 0 1-.75.75h-8a.75.75 0 0 1 0-1.5h8a.75.75 0 0 1 .75.75"></path></g></svg>