<svg xmlns="http://www.w3.org/2000/svg" width="24" height="24" viewBox="0 0 24 24"><g fill="#000000" class="nc-icon-wrapper"><path d="M19.708 17.58A3.73 3.73 0 0 0 20.75 15c0-2.067-1.683-3.75-3.75-3.75s-3.75 1.683-3.75 3.75c0 1.001.4 1.907 1.042 2.58A4.76 4.76 0 0 0 12 19.46a4.76 4.76 0 0 0-2.292-1.88A3.73 3.73 0 0 0 10.75 15c0-2.067-1.683-3.75-3.75-3.75S3.25 12.933 3.25 15c0 1.001.4 1.907 1.042 2.58-1.775.69-3.042 2.405-3.042 4.42 0 .414.336.75.75.75h20a.75.75 0 0 0 .75-.75c0-2.016-1.267-3.73-3.042-4.42M17 12.75c1.24 0 2.25 1.01 2.25 2.25s-1.01 2.25-2.25 2.25-2.25-1.01-2.25-2.25 1.01-2.25 2.25-2.25m-10 0c1.24 0 2.25 1.01 2.25 2.25S8.24 17.25 7 17.25 4.75 16.24 4.75 15 5.76 12.75 7 12.75m-4.163 8.5A3.256 3.256 0 0 1 6 18.75h2a3.26 3.26 0 0 1 3.163 2.5zm10 0A3.256 3.256 0 0 1 16 18.75h2a3.26 3.26 0 0 1 3.163 2.5zM22.75 4v6a.75.75 0 0 1-1.5 0V4c0-.69-.56-1.25-1.25-1.25H4c-.69 0-1.25.56-1.25 1.25v6a.75.75 0 0 1-1.5 0V4A2.753 2.753 0 0 1 4 1.25h16A2.753 2.753 0 0 1 22.75 4"></path></g></svg>